<?xml version="1.0" encoding="utf-8"?>
<!-- Generator: Adobe Illustrator 17.1.0, SVG Export Plug-In . SVG Version: 6.00 Build 0)  -->
<!DOCTYPE svg PUBLIC "-//W3C//DTD SVG 1.1//EN" "http://www.w3.org/Graphics/SVG/1.1/DTD/svg11.dtd">
<svg version="1.1" id="Layer_1" xmlns="http://www.w3.org/2000/svg" xmlns:xlink="http://www.w3.org/1999/xlink" x="0px" y="0px"
	 viewBox="351.4 0 577 800" enable-background="new 351.4 0 577 800" xml:space="preserve">
<path fill="#FFFFFF" stroke="#000000" stroke-miterlimit="10" d="M641.2,0C601,0,563.6,7.7,528.8,23.2
	c-34.9,15.4-65.4,35.9-91.7,61.4s-47.1,56-62.7,91.5c-15.4,35.7-23,72.6-23,111.4c0,69.5,22,130.7,66,183.2s99.4,85.7,165.8,99.8
	L641,800.2l57.9-229.5c65-13.9,119.3-47.1,163.5-99.8c44-52.5,66-113.7,66-183.2c0-38.6-7.7-75.7-23.2-111.2s-35.9-66-61.4-91.5
	s-56-46.1-91.5-61.4C717,7.7,679.8,0,641.2,0z M641.2,503.2c-60.4,0-111.2-21-152.9-62.7s-62.7-92.8-62.7-152.9
	c0-29.3,5.4-57.3,16.2-83.4c10.8-26.4,26.4-49,46.3-68.5c20.1-19.3,43-34.9,68.5-46.3C582.1,77.8,610.3,72,641.2,72
	c29.3,0,57.1,5.8,83.4,17.4c26.4,11.6,49,27,68.5,46.3c19.3,19.3,34.9,42.1,46.3,68.5c11.6,26.4,17.4,54.2,17.4,83.4
	c0,30.9-5.8,59.1-17.4,84.7c-11.6,25.5-27,48.4-46.3,68.5s-42.1,35.5-68.5,46.3C698.3,497.8,670.5,503.2,641.2,503.2z M641.2,169.3
	c-34,0-62.7,11.6-85.7,34.9s-34.9,51.1-34.9,83.4c0,34,11.6,62.7,34.9,85.7c23.2,23.2,51.9,34.9,85.7,34.9
	c32.4,0,60.4-11.6,83.4-34.9c23.2-23.2,34.9-51.9,34.9-85.7c0-32.4-11.6-60.4-34.9-83.4C701.4,181,673.6,169.3,641.2,169.3z"/>
</svg>
