<svg xmlns="http://www.w3.org/2000/svg" viewBox="351.4 0 577 800" enable-background="new 351.4 0 577 800"><path fill="#fff" stroke="#000" stroke-miterlimit="10" d="M641.2 0C601 0 563.6 7.7 528.8 23.2c-34.9 15.4-65.4 35.9-91.7 61.4s-47.1 56-62.7 91.5c-15.4 35.7-23 72.6-23 111.4 0 69.5 22 130.7 66 183.2s99.4 85.7 165.8 99.8L641 800.2l57.9-229.5c65-13.9 119.3-47.1 163.5-99.8 44-52.5 66-113.7 66-183.2 0-38.6-7.7-75.7-23.2-111.2s-35.9-66-61.4-91.5-56-46.1-91.5-61.4C717 7.7 679.8 0 641.2 0zm0 503.2c-60.4 0-111.2-21-152.9-62.7s-62.7-92.8-62.7-152.9c0-29.3 5.4-57.3 16.2-83.4 10.8-26.4 26.4-49 46.3-68.5 20.1-19.3 43-34.9 68.5-46.3C582.1 77.8 610.3 72 641.2 72c29.3 0 57.1 5.8 83.4 17.4 26.4 11.6 49 27 68.5 46.3 19.3 19.3 34.9 42.1 46.3 68.5 11.6 26.4 17.4 54.2 17.4 83.4 0 30.9-5.8 59.1-17.4 84.7-11.6 25.5-27 48.4-46.3 68.5s-42.1 35.5-68.5 46.3c-26.3 10.7-54.1 16.1-83.4 16.1zm0-333.9c-34 0-62.7 11.6-85.7 34.9s-34.9 51.1-34.9 83.4c0 34 11.6 62.7 34.9 85.7 23.2 23.2 51.9 34.9 85.7 34.9 32.4 0 60.4-11.6 83.4-34.9 23.2-23.2 34.9-51.9 34.9-85.7 0-32.4-11.6-60.4-34.9-83.4-23.2-23.2-51-34.9-83.4-34.9z"/></svg>